<?xml version="1.0" encoding="UTF-8"?>
<svg version="1.1" xmlns="http://www.w3.org/2000/svg" width="350" height="167">
<path d="M0 0 C115.5 0 231 0 350 0 C350 55.11 350 110.22 350 167 C234.5 167 119 167 0 167 C0 111.89 0 56.78 0 0 Z " fill="#FBFBFB" transform="translate(0,0)"/>
<path d="M0 0 C26.07 0 52.14 0 79 0 C79 33 79 66 79 100 C72.73 100 66.46 100 60 100 C60.00112793 97.86080078 60.00225586 95.72160156 60.00341797 93.51757812 C60.00278883 86.42871429 59.96923497 79.34027696 59.9197216 72.25159454 C59.89071913 67.9559946 59.87261272 63.66093823 59.87988281 59.36523438 C59.88649773 55.2150991 59.86387004 51.06603588 59.82144547 46.91612244 C59.81035239 45.33743611 59.80957977 43.75864055 59.81957626 42.1799469 C60.01062211 30.98404308 60.01062211 30.98404308 54.70535278 21.41296387 C49.58257223 17.16850261 43.83019966 15.27001572 37.19921875 15.6171875 C31.81573468 16.55427709 27.63938779 18.95266618 24.0625 23.0625 C20.97139318 27.46498547 20.86001666 30.58436928 20.79467773 35.8581543 C20.77982834 36.89756668 20.77982834 36.89756668 20.76467896 37.95797729 C20.7331104 40.24668978 20.70832497 42.53542301 20.68359375 44.82421875 C20.66302021 46.41177406 20.64202363 47.99932394 20.62062073 49.58686829 C20.56544139 53.76416628 20.51601388 57.94151337 20.46777344 62.11889648 C20.4175282 66.38204312 20.36185791 70.6451185 20.30664062 74.90820312 C20.19910964 83.2720768 20.09815481 91.63601103 20 100 C13.4 100 6.8 100 0 100 C0 67 0 34 0 0 Z " fill="#010102" transform="translate(20,12)"/>
<path d="M0 0 C3.80634156 1.83520039 5.4868474 2.97369479 7.375 6.75 C7.58125 7.4925 7.7875 8.235 8 9 C7.34 8.505 6.68 8.01 6 7.5 C1.91090338 5.45545169 -0.44331263 5.56602977 -5 6 C-7.31722053 7.0007305 -7.31722053 7.0007305 -9 9 C-9.62094184 12.08269963 -9.62094184 12.08269963 -9.54589844 15.67456055 C-9.55623611 16.347995 -9.56657379 17.02142944 -9.57722473 17.715271 C-9.60670289 19.93932953 -9.60815284 22.16248004 -9.609375 24.38671875 C-9.62435342 25.92944581 -9.64107986 27.47215681 -9.65948486 29.0148468 C-9.70320934 33.07382942 -9.72316851 37.13259573 -9.73822021 41.19177246 C-9.75777314 45.33435891 -9.79974508 49.47671112 -9.83984375 53.61914062 C-9.91520092 61.74603255 -9.96545874 69.87283262 -10 78 C-12.97 78 -15.94 78 -19 78 C-19.09280748 69.10721205 -19.16381914 60.21459161 -19.20724869 51.32142448 C-19.22809606 47.19164765 -19.2563609 43.06220291 -19.30175781 38.93261719 C-19.34531833 34.94498571 -19.36915855 30.95767304 -19.37950897 26.96982193 C-19.38688213 25.4507966 -19.40128042 23.9317881 -19.42292023 22.41289902 C-19.45209175 20.27993239 -19.45595054 18.14827173 -19.45410156 16.01513672 C-19.46298401 14.8026828 -19.47186646 13.59022888 -19.48101807 12.34103394 C-18.7788014 7.46360856 -16.52942676 4.3494942 -12.875 1.125 C-8.55596425 -0.56505747 -4.57375063 -0.65862009 0 0 Z " fill="#0F0F10" transform="translate(65,34)"/>
<path d="M0 0 C26.4 0 52.8 0 80 0 C80 2.64 80 5.28 80 8 C53.6 8 27.2 8 0 8 C0 5.36 0 2.72 0 0 Z " fill="#040404" transform="translate(20,120)"/>
<path d="M0 0 C4.7446812 1.1861703 5.44591624 2.35316231 8.375 6.125 C11.82664773 10.52798527 15.34710274 14.73828653 19 19 C19.33 12.73 19.66 6.46 20 0 C21.32 0 22.64 0 24 0 C24 8.91 24 17.82 24 27 C19.33511145 25.83377786 17.58866314 23.77989188 14.5625 20.3125 C14.09779297 19.79494141 13.63308594 19.27738281 13.15429688 18.74414062 C10.0154205 15.2287742 7.02034123 11.62440947 4 8 C3.67 13.94 3.34 19.88 3 26 C2.01 26 1.02 26 0 26 C0 17.42 0 8.84 0 0 Z " fill="#171717" transform="translate(126,14)"/>
<path d="M0 0 C0.99 0 1.98 0 3 0 C3 8.91 3 17.82 3 27 C-6 27 -6 27 -10 25 C-12.46020483 21.30969275 -12.79823937 18.28222164 -12 14 C-9.9375 10.9375 -9.9375 10.9375 -7 9 C-3.1875 9.1875 -3.1875 9.1875 0 10 C0 6.7 0 3.4 0 0 Z " fill="#0F0F0F" transform="translate(186,87)"/>
<path d="M0 0 C4.12919118 0.68819853 6.81799899 1.94190776 9.375 5.3125 C10.26089715 8.41314004 9.89945179 10.41616529 9 13.5 C6.28845999 16.73635421 4.40201184 18.31306509 0.1875 18.875 C-4.0238265 18.37954982 -5.30545019 16.65647263 -8 13.5 C-8.33 13.17 -8.66 12.84 -9 12.5 C-8.83719226 8.26699878 -8.36512992 5.99031732 -5.8125 2.5625 C-3 0.5 -3 0.5 0 0 Z " fill="#1F1F1F" transform="translate(200,22.5)"/>
<path d="M0 0 C2.4375 1.5625 2.4375 1.5625 4 4 C4.79006434 8.97740536 4.79006434 8.97740536 4 12 C1.11756811 15.29420787 -0.74148444 16.76884408 -5.0625 17.5625 C-8.67781108 16.87020639 -10.38108416 15.54408967 -13 13 C-14.44430855 10.11138291 -14.37688506 8.20352299 -14 5 C-9.36185236 -0.49254326 -7.03521749 -1.57685909 0 0 Z " fill="#191919" transform="translate(282,97)"/>
<path d="M0 0 C0.99 0 1.98 0 3 0 C4.83944626 3.95552103 6.67051553 7.91486285 8.5 11.875 C9.02464844 13.00292969 9.54929688 14.13085938 10.08984375 15.29296875 C10.58613281 16.36933594 11.08242187 17.44570312 11.59375 18.5546875 C12.05458984 19.54968262 12.51542969 20.54467773 12.99023438 21.56982422 C14 24 14 24 14 26 C12.68 26 11.36 26 10 26 C8.515 22.535 8.515 22.535 7 19 C3.37 19 -0.26 19 -4 19 C-4.99 21.31 -5.98 23.62 -7 26 C-8.32 26 -9.64 26 -11 26 C-9.17271177 19.98069759 -6.89266112 14.25685097 -4.375 8.5 C-4.06167725 7.78134766 -3.74835449 7.06269531 -3.42553711 6.32226562 C-1.13112942 1.13112942 -1.13112942 1.13112942 0 0 Z " fill="#121212" transform="translate(134,51)"/>
<path d="M0 0 C0.99 0 1.98 0 3 0 C4.83944626 3.95552103 6.67051553 7.91486285 8.5 11.875 C9.02464844 13.00292969 9.54929688 14.13085938 10.08984375 15.29296875 C10.58613281 16.36933594 11.08242187 17.44570312 11.59375 18.5546875 C12.05458984 19.54968262 12.51542969 20.54467773 12.99023438 21.56982422 C14 24 14 24 14 26 C12.68 26 11.36 26 10 26 C8.515 22.535 8.515 22.535 7 19 C3.37 19 -0.26 19 -4 19 C-4.99 21.31 -5.98 23.62 -7 26 C-8.32 26 -9.64 26 -11 26 C-9.17271177 19.98069759 -6.89266112 14.25685097 -4.375 8.5 C-4.06167725 7.78134766 -3.74835449 7.06269531 -3.42553711 6.32226562 C-1.13112942 1.13112942 -1.13112942 1.13112942 0 0 Z " fill="#121212" transform="translate(134,124)"/>
<path d="M0 0 C2.93602134 1.99899325 4.62130844 3.44520943 5.48046875 6.97265625 C5.73368112 10.63397028 5.28906589 12.63866763 3 15.5 C-0.83662728 17.41831364 -3.79509696 17.96644949 -8 17 C-11.74195779 14.42740402 -12.81109157 12.96171566 -13.6875 8.5 C-12.94604041 4.72529664 -11.93291073 3.12410055 -8.78125 0.88671875 C-5.63003859 -0.6819764 -3.41893718 -0.62162494 0 0 Z " fill="#131313" transform="translate(275,60)"/>
<path d="M0 0 C4.81826218 0.84530916 6.34029694 1.93125503 9.5625 5.625 C10.25 9.125 10.25 9.125 9.5625 12.625 C7.57466563 15.54463173 6.1310303 17.23602978 2.625 18.10546875 C-1.33765906 18.38315509 -3.10161401 17.85592162 -6.4375 15.5625 C-8.96725133 11.84692774 -9.2253128 10.0367517 -8.4375 5.625 C-5.86890902 1.96670376 -4.41498801 0.80272509 0 0 Z " fill="#111111" transform="translate(187.4375,59.375)"/>
<path d="M0 0 C4.6 2.2 4.6 2.2 6 5 C6.48602588 9.29322859 6.46241608 11.32082639 4 14.9375 C0.66411401 17.23092162 -1.09984094 17.75815509 -5.0625 17.48046875 C-8.5685303 16.61102978 -10.01216563 14.91963173 -12 12 C-12.625 8.5 -12.625 8.5 -12 5 C-8.55801715 0.097782 -5.87587932 -0.83941133 0 0 Z " fill="#121212" transform="translate(325,60)"/>
<path d="M0 0 C0.99 0.66 1.98 1.32 3 2 C2.67 3.32 2.34 4.64 2 6 C1.67 5.67 1.34 5.34 1 5 C-1.33297433 4.95907063 -3.66705225 4.95758277 -6 5 C-6 6.32 -6 7.64 -6 9 C-4.05757292 10.73031218 -4.05757292 10.73031218 -1.5625 12.125 C2.91479821 14.82959641 2.91479821 14.82959641 4 17 C4.375 19.875 4.375 19.875 4 23 C1.39001883 25.91703777 -0.1657591 26.89784805 -4.0625 27.375 C-6.86078426 27.01777222 -8.61762948 26.46607416 -11 25 C-11 23.35 -11 21.7 -11 20 C-9.515 20.99 -9.515 20.99 -8 22 C-5.66800612 22.07905064 -3.33167378 22.08798769 -1 22 C-0.88364895 19.70218446 -0.88364895 19.70218446 -2 17 C-3.83462677 15.4843862 -3.83462677 15.4843862 -6 14.0625 C-8.91127645 12.01673817 -9.87201168 11.29863941 -11.3125 7.9375 C-11 5 -11 5 -8.9375 2.125 C-5.54248102 -0.33097117 -4.09302737 -0.62285199 0 0 Z " fill="#202020" transform="translate(135,87)"/>
<path d="M0 0 C1.32 0 2.64 0 4 0 C4 3.3 4 6.6 4 10 C4.66 9.67 5.32 9.34 6 9 C8.9375 8.6875 8.9375 8.6875 12 9 C14.51184797 11.38917632 14.97762806 12.75301375 15.29296875 16.234375 C15.25816406 17.39453125 15.22335938 18.5546875 15.1875 19.75 C15.16042969 20.92046875 15.13335937 22.0909375 15.10546875 23.296875 C15.07066406 24.18890625 15.03585938 25.0809375 15 26 C13.68 26 12.36 26 11 26 C10.67 21.05 10.34 16.1 10 11 C8.35 11.66 6.7 12.32 5 13 C4.67 17.29 4.34 21.58 4 26 C2.68 26 1.36 26 0 26 C0 17.42 0 8.84 0 0 Z " fill="#262626" transform="translate(181,124)"/>
<path d="M0 0 C2.4375 1.6875 2.4375 1.6875 4 4 C4 5.65 4 7.3 4 9 C0.04 9 -3.92 9 -8 9 C-7.01 10.32 -6.02 11.64 -5 13 C-1.54429807 13.35996895 0.70024471 13.09991843 4 12 C4 13.32 4 14.64 4 16 C0.52214289 17.73892856 -3.20533849 17.57964634 -7 17 C-9.72246943 14.87514581 -10.73121981 13.42877889 -11.37109375 10.02734375 C-11.5804199 6.63372278 -11.24115642 4.38585027 -9.4375 1.5 C-6.05111671 -0.58392818 -3.90614682 -0.55802097 0 0 Z " fill="#151515" transform="translate(232,133)"/>
<path d="M0 0 C2.4375 1.6875 2.4375 1.6875 4 4 C4 5.65 4 7.3 4 9 C0.04 9 -3.92 9 -8 9 C-7.67 10.32 -7.34 11.64 -7 13 C-5.1128125 13.0309375 -5.1128125 13.0309375 -3.1875 13.0625 C-2.47980469 13.07410156 -1.77210938 13.08570313 -1.04296875 13.09765625 C1.20305461 13.08263217 1.20305461 13.08263217 4 12 C4 13.32 4 14.64 4 16 C0.52214289 17.73892856 -3.20533849 17.57964634 -7 17 C-9.72246943 14.87514581 -10.73121981 13.42877889 -11.37109375 10.02734375 C-11.5804199 6.63372278 -11.24115642 4.38585027 -9.4375 1.5 C-6.05111671 -0.58392818 -3.90614682 -0.55802097 0 0 Z " fill="#0F0F0F" transform="translate(313,133)"/>
<path d="M0 0 C3.61546049 0.69232222 4.82975302 1.56301391 6.9375 4.5625 C6.9375 6.2125 6.9375 7.8625 6.9375 9.5625 C3.3075 9.5625 -0.3225 9.5625 -4.0625 9.5625 C-3.7325 11.2125 -3.4025 12.8625 -3.0625 14.5625 C2.02053686 14.67570856 2.02053686 14.67570856 6.9375 13.5625 C6.5625 15.5 6.5625 15.5 5.9375 17.5625 C3.08425563 18.98912219 1.10295451 18.87283868 -2.0625 18.5625 C-4.76240662 16.76256226 -6.6043865 15.478727 -8.0625 12.5625 C-8.55762681 8.18887986 -8.55473866 6.24294756 -5.9375 2.625 C-3.0625 0.5625 -3.0625 0.5625 0 0 Z " fill="#0E0E0E" transform="translate(201.0625,95.4375)"/>
<path d="M0 0 C7.4600951 -0.36688992 7.4600951 -0.36688992 9.71875 1.16796875 C11.44119439 3.63085417 11.50707752 5.51701495 11.6875 8.5 C11.78611328 9.93859375 11.78611328 9.93859375 11.88671875 11.40625 C11.96809299 13.26943949 12 15.13503436 12 17 C10.04196493 17.05389087 8.08351091 17.09274217 6.125 17.125 C4.48917969 17.15980469 4.48917969 17.15980469 2.8203125 17.1953125 C0 17 0 17 -2 15 C-2 12.5625 -2 12.5625 -1 10 C3.86206897 7 3.86206897 7 7 7 C6.67 6.01 6.34 5.02 6 4 C2.37114676 3.84850702 2.37114676 3.84850702 -1 5 C-0.67 3.35 -0.34 1.7 0 0 Z " fill="#1D1D1D" transform="translate(226,60)"/>
<path d="M0 0 C3.60192515 0.28250393 4.70017386 0.68778662 7.1875 3.25 C7.578125 6.16796875 7.578125 6.16796875 7.4375 9.4375 C7.40140625 10.52417969 7.3653125 11.61085938 7.328125 12.73046875 C7.25851563 13.97763672 7.25851563 13.97763672 7.1875 15.25 C7.8475 15.25 8.5075 15.25 9.1875 15.25 C9.1875 15.91 9.1875 16.57 9.1875 17.25 C4.67244285 18.54001633 0.72839534 18.35454211 -3.8125 17.25 C-4.8125 16.25 -4.8125 16.25 -5.1875 13.875 C-5.06375 13.00875 -4.94 12.1425 -4.8125 11.25 C-2.4375 9.5 -2.4375 9.5 0.1875 8.25 C0.8475 7.92 1.5075 7.59 2.1875 7.25 C2.1875 6.26 2.1875 5.27 2.1875 4.25 C-0.1225 4.58 -2.4325 4.91 -4.8125 5.25 C-3.70130761 0.32900512 -3.70130761 0.32900512 0 0 Z " fill="#212121" transform="translate(158.8125,22.75)"/>
<path d="M0 0 C2.475 0.495 2.475 0.495 5 1 C5.33 0.67 5.66 0.34 6 0 C9.4375 0.25 9.4375 0.25 13 1 C15.49118953 4.7367843 15.2065226 6.74451819 15.125 11.1875 C15.10695312 12.45980469 15.08890625 13.73210938 15.0703125 15.04296875 C15.03550781 16.50669922 15.03550781 16.50669922 15 18 C13.68 18 12.36 18 11 18 C10.67 13.38 10.34 8.76 10 4 C8.02 4 6.04 4 4 4 C4 8.62 4 13.24 4 18 C2.68 18 1.36 18 0 18 C0 12.06 0 6.12 0 0 Z " fill="#3F3F3F" transform="translate(213,23)"/>
<path d="M0 0 C1.32 0 2.64 0 4 0 C4.33 4.62 4.66 9.24 5 14 C6.65 13.67 8.3 13.34 10 13 C10.33 8.71 10.66 4.42 11 0 C12.32 0 13.64 0 15 0 C15 5.94 15 11.88 15 18 C13.35 17.67 11.7 17.34 10 17 C8.96875 17.185625 7.9375 17.37125 6.875 17.5625 C4 18 4 18 1 16 C-0.14077657 12.57767028 -0.09815117 9.91326783 -0.0625 6.3125 C-0.05347656 5.13300781 -0.04445312 3.95351562 -0.03515625 2.73828125 C-0.02355469 1.83464844 -0.01195312 0.93101563 0 0 Z " fill="#383838" transform="translate(155,96)"/>
<path d="M0 0 C1.6796875 1.12890625 1.6796875 1.12890625 3 3 C3.29296875 5.91796875 3.29296875 5.91796875 3.1875 9.1875 C3.16042969 10.27417969 3.13335937 11.36085938 3.10546875 12.48046875 C3.07066406 13.31191406 3.03585938 14.14335938 3 15 C3.99 15 4.98 15 6 15 C6 15.66 6 16.32 6 17 C1.25 18.125 1.25 18.125 -1 17 C-1.804375 17.20625 -2.60875 17.4125 -3.4375 17.625 C-6 18 -6 18 -7.875 16.8125 C-9 15 -9 15 -8.9375 13 C-7.73720347 10.4393674 -6.38896973 9.47554013 -4 8 C-3.01 7.67 -2.02 7.34 -1 7 C-1 6.01 -1 5.02 -1 4 C-3.31 4.33 -5.62 4.66 -8 5 C-8 3.68 -8 2.36 -8 1 C-5.20129973 -0.39935013 -3.09501208 -0.25265405 0 0 Z " fill="#0F0F0F" transform="translate(240,23)"/>
<path d="M0 0 C9.1796875 -0.1953125 9.1796875 -0.1953125 12 0 C14 2 14 2 14.1953125 5.4765625 C14.18201493 6.85950968 14.15816232 8.24238654 14.125 9.625 C14.11597656 10.33140625 14.10695313 11.0378125 14.09765625 11.765625 C14.07407603 13.51056098 14.03820461 15.25532295 14 17 C13.01 17 12.02 17 11 17 C10.67 12.71 10.34 8.42 10 4 C8.68 3.67 7.36 3.34 6 3 C4.12175109 4.87824891 4.60897603 8.03935276 4.4375 10.5625 C4.31181641 12.35880859 4.31181641 12.35880859 4.18359375 14.19140625 C4.12300781 15.11824219 4.06242187 16.04507813 4 17 C2.68 17 1.36 17 0 17 C0 11.39 0 5.78 0 0 Z " fill="#242424" transform="translate(284,60)"/>
<path d="M0 0 C0 0.99 0 1.98 0 3 C-1.32 3.33 -2.64 3.66 -4 4 C-4.33 5.65 -4.66 7.3 -5 9 C-4.01 9 -3.02 9 -2 9 C-2 9.99 -2 10.98 -2 12 C-2.99 12 -3.98 12 -5 12 C-5 16.62 -5 21.24 -5 26 C-6.32 26 -7.64 26 -9 26 C-9 21.38 -9 16.76 -9 12 C-9.66 12 -10.32 12 -11 12 C-11 11.01 -11 10.02 -11 9 C-10.01 9 -9.02 9 -8 9 C-8.061875 8.071875 -8.12375 7.14375 -8.1875 6.1875 C-8 3 -8 3 -6.8125 1.125 C-4.43963721 -0.34781139 -2.74086056 -0.22223194 0 0 Z " fill="#1E1E1E" transform="translate(344,51)"/>
<path d="M0 0 C3 1 3 1 4.60546875 4.0546875 C5.14407431 5.32340281 5.67099484 6.59712797 6.1875 7.875 C6.46013672 8.51308594 6.73277344 9.15117187 7.01367188 9.80859375 C8.2167376 12.69715757 9 14.8415827 9 18 C8.34 18 7.68 18 7 18 C6.34 16.35 5.68 14.7 5 13 C2.36 13 -0.28 13 -3 13 C-3.33 14.65 -3.66 16.3 -4 18 C-4.66 18 -5.32 18 -6 18 C-4.83805848 11.53287812 -2.8751252 5.90377651 0 0 Z " fill="#202020" transform="translate(90,133)"/>
<path d="M0 0 C0.99 0 1.98 0 3 0 C3 0.66 3 1.32 3 2 C3.99 1.34 4.98 0.68 6 0 C8.73079417 -0.34134927 10.30921687 -0.44958332 12.64453125 1.0703125 C14.72579181 4.03325981 14.28549149 6.62714255 14.1875 10.1875 C14.16042969 11.45980469 14.13335937 12.73210937 14.10546875 14.04296875 C14.07066406 15.01878906 14.03585938 15.99460937 14 17 C13.01 17 12.02 17 11 17 C10.67 12.71 10.34 8.42 10 4 C8.35 4 6.7 4 5 4 C3.18884044 5.81115956 3.61800552 8.61278227 3.4375 11.0625 C3.31181641 12.71958984 3.31181641 12.71958984 3.18359375 14.41015625 C3.12300781 15.26480469 3.06242188 16.11945313 3 17 C2.01 17 1.02 17 0 17 C0 11.39 0 5.78 0 0 Z " fill="#0F0F0F" transform="translate(212,96)"/>
<path d="M0 0 C0.99 0.33 1.98 0.66 3 1 C4.20427373 3.48180012 5.22540913 5.86479775 6.1875 8.4375 C6.46013672 9.13166016 6.73277344 9.82582031 7.01367188 10.54101562 C9 15.68356438 9 15.68356438 9 18 C8.01 17.67 7.02 17.34 6 17 C5.67 16.01 5.34 15.02 5 14 C2.36 13.67 -0.28 13.34 -3 13 C-3.12375 13.639375 -3.2475 14.27875 -3.375 14.9375 C-3.58125 15.618125 -3.7875 16.29875 -4 17 C-4.66 17.33 -5.32 17.66 -6 18 C-5.55397709 11.30965634 -2.92654458 5.97187878 0 0 Z " fill="#2D2C2C" transform="translate(48,133)"/>
<path d="M0 0 C0.99 0 1.98 0 3 0 C3.06058594 0.84304687 3.12117188 1.68609375 3.18359375 2.5546875 C3.26738281 3.65039062 3.35117187 4.74609375 3.4375 5.875 C3.51871094 6.96554688 3.59992188 8.05609375 3.68359375 9.1796875 C3.83001703 11.94728971 3.83001703 11.94728971 5 14 C6.65 13.67 8.3 13.34 10 13 C10.33 8.71 10.66 4.42 11 0 C11.99 0 12.98 0 14 0 C14 5.61 14 11.22 14 17 C12.68 16.67 11.36 16.34 10 16 C9.67 16.33 9.34 16.66 9 17 C3.72426831 17.45875928 3.72426831 17.45875928 1.31640625 15.93359375 C-0.70789836 12.96020864 -0.28491652 10.35196671 -0.1875 6.8125 C-0.16042969 5.54019531 -0.13335937 4.26789063 -0.10546875 2.95703125 C-0.07066406 1.98121094 -0.03585937 1.00539062 0 0 Z " fill="#0C0C0C" transform="translate(269,133)"/>
<path d="M0 0 C0.66 0.33 1.32 0.66 2 1 C2 1.99 2 2.98 2 4 C-0.31 3.67 -2.62 3.34 -5 3 C-4.26047893 6.2800323 -4.26047893 6.2800323 -1 7.875 C2 10 2 10 2.875 12.75 C2.936875 13.86375 2.936875 13.86375 3 15 C1.4375 16.5625 1.4375 16.5625 -1 18 C-4.75 17.6875 -4.75 17.6875 -8 17 C-8.33 15.68 -8.66 14.36 -9 13 C-6.69 13.33 -4.38 13.66 -2 14 C-2.68856935 10.80286642 -2.68856935 10.80286642 -5.5 9.625 C-8 8 -8 8 -9 5.5 C-9 3 -9 3 -7.9375 1.1875 C-5.20834442 -0.48520826 -3.14077704 -0.26730017 0 0 Z " fill="#1D1D1D" transform="translate(252,96)"/>
<path d="M0 0 C0.33 1.32 0.66 2.64 1 4 C-1.31 3.67 -3.62 3.34 -6 3 C-5.13375 3.86625 -5.13375 3.86625 -4.25 4.75 C-3.5075 5.4925 -2.765 6.235 -2 7 C-1.236875 7.639375 -0.47375 8.27875 0.3125 8.9375 C2 11 2 11 1.875 13.6875 C1 16 1 16 -1 17 C-7.53333333 17.23333333 -7.53333333 17.23333333 -10 16 C-10 14.68 -10 13.36 -10 12 C-7.36 12.66 -4.72 13.32 -2 14 C-2.74548236 10.72127004 -2.74548236 10.72127004 -6 9.0625 C-9 7 -9 7 -10.0625 4.9375 C-10 3 -10 3 -9 1.25 C-6.03327697 -0.6042019 -3.41502959 -0.19330356 0 0 Z " fill="#1C1C1C" transform="translate(174,60)"/>
<path d="M0 0 C0.33 0.66 0.66 1.32 1 2 C2.98 2 4.96 2 7 2 C7 3.32 7 4.64 7 6 C5.35 6 3.7 6 2 6 C2.33 9.3 2.66 12.6 3 16 C4.65 16 6.3 16 8 16 C8 16.99 8 17.98 8 19 C1.53658537 20.34146341 1.53658537 20.34146341 -0.71875 18.90625 C-2.55756764 16.17044815 -2.29261279 14.07099634 -2.1875 10.8125 C-2.16042969 9.72582031 -2.13335937 8.63914062 -2.10546875 7.51953125 C-2.07066406 6.68808594 -2.03585938 5.85664062 -2 5 C-2.66 4.67 -3.32 4.34 -4 4 C-2.68 2.68 -1.36 1.36 0 0 Z " fill="#272727" transform="translate(145,94)"/>
<path d="M0 0 C0 1.32 0 2.64 0 4 C-1.32 4.33 -2.64 4.66 -4 5 C-4.33 6.32 -4.66 7.64 -5 9 C-4.01 9 -3.02 9 -2 9 C-2 10.32 -2 11.64 -2 13 C-2.99 13 -3.98 13 -5 13 C-5 17.29 -5 21.58 -5 26 C-5.99 26 -6.98 26 -8 26 C-8 21.38 -8 16.76 -8 12 C-8.99 12 -9.98 12 -11 12 C-11 11.34 -11 10.68 -11 10 C-10.01 10 -9.02 10 -8 10 C-8.061875 8.906875 -8.12375 7.81375 -8.1875 6.6875 C-8 3 -8 3 -6.8125 1.0625 C-4.43958382 -0.32851983 -2.70313576 -0.21917317 0 0 Z " fill="#1B1B1B" transform="translate(299,87)"/>
<path d="M0 0 C3.5625 0.125 3.5625 0.125 5.5625 1.125 C5.5625 2.115 5.5625 3.105 5.5625 4.125 C2.9225 3.795 0.2825 3.465 -2.4375 3.125 C-0.62915691 5.02851904 1.07899131 6.48534277 3.25 8 C5.5625 10.125 5.5625 10.125 6 12.75 C5.5625 15.125 5.5625 15.125 3.5625 17.125 C0.87410615 17.39491906 -1.72891936 17.21237357 -4.4375 17.125 C-4.7675 15.805 -5.0975 14.485 -5.4375 13.125 C-3.1275 13.455 -0.8175 13.785 1.5625 14.125 C0.07152342 10.3297869 -2.19450849 8.51457269 -5.4375 6.125 C-4.36664125 0.15878695 -4.36664125 0.15878695 0 0 Z " fill="#171717" transform="translate(155.4375,59.875)"/>
<path d="M0 0 C3.94875582 1.31625194 4.54992713 3.05365398 6.6875 6.5625 C7.31011719 7.57441406 7.93273437 8.58632812 8.57421875 9.62890625 C9.04472656 10.41136719 9.51523437 11.19382813 10 12 C10.33 8.04 10.66 4.08 11 0 C11.66 0 12.32 0 13 0 C13 5.94 13 11.88 13 18 C7.33251525 15.16625763 6.08828336 11.47468414 3 6 C2.67 9.96 2.34 13.92 2 18 C1.34 18 0.68 18 0 18 C0 12.06 0 6.12 0 0 Z " fill="#181718" transform="translate(21,133)"/>
<path d="M0 0 C0.33 1.32 0.66 2.64 1 4 C-0.11375 3.95875 -1.2275 3.9175 -2.375 3.875 C-6.04366025 3.58878141 -6.04366025 3.58878141 -8 6 C-8.33333333 8.5 -8.33333333 8.5 -8 11 C-6.23863645 13.18331689 -6.23863645 13.18331689 -4.0546875 13.1953125 C-1.02734375 13.09765625 -1.02734375 13.09765625 2 13 C1.67 14.32 1.34 15.64 1 17 C-7.01284109 17.77046549 -7.01284109 17.77046549 -10.5625 15 C-12.54877707 10.85472611 -12.58199542 8.58321396 -12 4 C-8.98818934 -1.01968443 -5.31107251 -0.3540715 0 0 Z " fill="#141414" transform="translate(251,133)"/>
<path d="M0 0 C0.33 1.32 0.66 2.64 1 4 C-0.11375 3.95875 -1.2275 3.9175 -2.375 3.875 C-6.04366025 3.58878141 -6.04366025 3.58878141 -8 6 C-8.33333333 8.5 -8.33333333 8.5 -8 11 C-6.23863645 13.18331689 -6.23863645 13.18331689 -4.0546875 13.1953125 C-1.02734375 13.09765625 -1.02734375 13.09765625 2 13 C1.67 14.32 1.34 15.64 1 17 C-7.01284109 17.77046549 -7.01284109 17.77046549 -10.5625 15 C-12.54877707 10.85472611 -12.58199542 8.58321396 -12 4 C-8.98818934 -1.01968443 -5.31107251 -0.3540715 0 0 Z " fill="#131313" transform="translate(176,133)"/>
<path d="M0 0 C-0.33 1.32 -0.66 2.64 -1 4 C-1.94875 3.95875 -2.8975 3.9175 -3.875 3.875 C-7.10244856 3.65026182 -7.10244856 3.65026182 -9 6 C-9.33333333 8.5 -9.33333333 8.5 -9 11 C-7.23863645 13.18331689 -7.23863645 13.18331689 -5.0546875 13.1953125 C-2.02734375 13.09765625 -2.02734375 13.09765625 1 13 C0.67 14.32 0.34 15.64 0 17 C-4.37958988 17.29692135 -7.02032585 17.4694272 -11 15.5625 C-13.54794034 12.29795144 -13.67376597 10.18846116 -13.40625 6.12890625 C-13 4 -13 4 -11.5625 1.4375 C-7.7722199 -0.68875469 -4.25016698 -0.32693592 0 0 Z " fill="#151515" transform="translate(213,60)"/>
<path d="M0 0 C2 3 2 3 1.75 5.5625 C1 8 1 8 -1 10 C-4.13704316 10.333728 -6.16554166 10.52849028 -8.875 8.8125 C-10.40659584 6.34492892 -10.42822025 4.85480169 -10 2 C-7.59684073 -2.24086929 -4.21511384 -1.07293807 0 0 Z " fill="#F1F1F1" transform="translate(192,64)"/>
<path d="M0 0 C0.66 0 1.32 0 2 0 C2 0.99 2 1.98 2 3 C3.65 3 5.3 3 7 3 C7 3.99 7 4.98 7 6 C5.35 6 3.7 6 2 6 C2 9.63 2 13.26 2 17 C3.98 17 5.96 17 8 17 C7.67 17.99 7.34 18.98 7 20 C1.5320197 20.36453202 1.5320197 20.36453202 -0.6875 18.84375 C-2.51962482 16.27005085 -2.29770208 14.43489214 -2.1875 11.3125 C-2.16042969 10.31863281 -2.13335937 9.32476562 -2.10546875 8.30078125 C-2.07066406 7.54152344 -2.03585938 6.78226563 -2 6 C-2.66 5.67 -3.32 5.34 -4 5 C-2.71937515 3.2925002 -1.38232443 1.62626404 0 0 Z " fill="#1A1A1A" transform="translate(211,130)"/>
<path d="M0 0 C3.0625 0.3125 3.0625 0.3125 4.9375 1.5 C6.46909584 3.96757108 6.49072025 5.45769831 6.0625 8.3125 C4.9375 10.125 4.9375 10.125 3.0625 11.3125 C0 11.625 0 11.625 -2.9375 11.3125 C-4.9375 9.3125 -4.9375 9.3125 -5.1875 5.8125 C-4.87458101 1.43163414 -4.40975115 0.46912246 0 0 Z " fill="#F3F3F3" transform="translate(321.9375,62.6875)"/>
<path d="M0 0 C3.0625 0.3125 3.0625 0.3125 4.9375 1.5 C6.46909584 3.96757108 6.49072025 5.45769831 6.0625 8.3125 C4.9375 10.125 4.9375 10.125 3.0625 11.3125 C0 11.625 0 11.625 -2.9375 11.3125 C-4.9375 9.3125 -4.9375 9.3125 -5.1875 5.8125 C-4.87458101 1.43163414 -4.40975115 0.46912246 0 0 Z " fill="#F4F4F4" transform="translate(270.9375,62.6875)"/>
<path d="M0 0 C0.33 0.99 0.66 1.98 1 3 C2.98 3 4.96 3 7 3 C7 3.99 7 4.98 7 6 C5.02 6 3.04 6 1 6 C1.33 9.3 1.66 12.6 2 16 C3.98 16 5.96 16 8 16 C7.67 17.32 7.34 18.64 7 20 C3.625 20.125 3.625 20.125 0 20 C-2 18 -2 18 -2.1953125 15.1796875 C-2.16050781 13.54386719 -2.16050781 13.54386719 -2.125 11.875 C-2.10695313 10.77929688 -2.08890625 9.68359375 -2.0703125 8.5546875 C-2.03550781 7.29011719 -2.03550781 7.29011719 -2 6 C-2.99 5.67 -3.98 5.34 -5 5 C-3.35 3.35 -1.7 1.7 0 0 Z " fill="#131313" transform="translate(259,130)"/>
<path d="M0 0 C1.7325 0.1546875 1.7325 0.1546875 3.5 0.3125 C5.64762184 3.53393276 6.061068 4.5720467 5.5 8.3125 C3.8125 10.1875 3.8125 10.1875 1.5 11.3125 C-1.87036311 11.07175978 -3.08798021 10.72451979 -5.5 8.3125 C-5.75 5.3125 -5.75 5.3125 -5.5 2.3125 C-3.5 0.3125 -3.5 0.3125 0 0 Z " fill="#F3F3F3" transform="translate(277.5,99.6875)"/>
<path d="M0 0 C3.0625 0.25 3.0625 0.25 6.0625 2.25 C6.0625 3.24 6.0625 4.23 6.0625 5.25 C5.4025 5.25 4.7425 5.25 4.0625 5.25 C3.7325 4.59 3.4025 3.93 3.0625 3.25 C1.4125 3.25 -0.2375 3.25 -1.9375 3.25 C-2.2675 4.24 -2.5975 5.23 -2.9375 6.25 C-2.38320312 6.44335938 -1.82890625 6.63671875 -1.2578125 6.8359375 C-0.53335938 7.09632813 0.19109375 7.35671875 0.9375 7.625 C1.65679687 7.88023437 2.37609375 8.13546875 3.1171875 8.3984375 C5.0625 9.25 5.0625 9.25 7.0625 11.25 C6.73278521 14.54714793 6.4398161 15.8726839 4.0625 18.25 C-2.10925573 18.8110687 -2.10925573 18.8110687 -4.875 16.9375 C-5.9375 15.25 -5.9375 15.25 -5.9375 12.25 C-5.2775 12.25 -4.6175 12.25 -3.9375 12.25 C-2.9475 13.735 -2.9475 13.735 -1.9375 15.25 C0.64630177 15.50030977 0.64630177 15.50030977 3.0625 15.25 C3.0625 13.93 3.0625 12.61 3.0625 11.25 C1.94875 10.96125 0.835 10.6725 -0.3125 10.375 C-3.9375 9.25 -3.9375 9.25 -5.9375 7.25 C-5.49166871 2.79168705 -4.82926429 0.41100122 0 0 Z " fill="#191919" transform="translate(69.9375,132.75)"/>
<path d="M0 0 C3.5 0.25 3.5 0.25 5.5 2.25 C5.75 5.25 5.75 5.25 5.5 8.25 C3.5 10.25 3.5 10.25 0 10.5 C-3.5 10.25 -3.5 10.25 -5.5 8.25 C-5.75 5.25 -5.75 5.25 -5.5 2.25 C-3.5 0.25 -3.5 0.25 0 0 Z " fill="#F8F8F8" transform="translate(200.5,26.75)"/>
<path d="M0 0 C1 1 1 1 1.09765625 3.50390625 C1.08605469 4.51324219 1.07445312 5.52257812 1.0625 6.5625 C1.05347656 7.57441406 1.04445312 8.58632812 1.03515625 9.62890625 C1.02355469 10.41136719 1.01195312 11.19382812 1 12 C-4.4 12.36 -4.4 12.36 -6.875 10.875 C-8.52854531 8.11909116 -8.39365568 6.14924548 -8 3 C-5.88631201 -0.33740208 -3.77789253 -0.3976729 0 0 Z " fill="#EBEBEB" transform="translate(185,99)"/>
<path d="M0 0 C0.33 0.99 0.66 1.98 1 3 C2.65 3 4.3 3 6 3 C6 3.99 6 4.98 6 6 C4.35 6 2.7 6 1 6 C1.33 9.3 1.66 12.6 2 16 C3.65 16.33 5.3 16.66 7 17 C7 17.99 7 18.98 7 20 C3.625 20.125 3.625 20.125 0 20 C-2 18 -2 18 -2.1953125 15.1796875 C-2.16050781 13.54386719 -2.16050781 13.54386719 -2.125 11.875 C-2.10695312 10.77929688 -2.08890625 9.68359375 -2.0703125 8.5546875 C-2.03550781 7.29011719 -2.03550781 7.29011719 -2 6 C-2.99 5.67 -3.98 5.34 -5 5 C-3.35 3.35 -1.7 1.7 0 0 Z " fill="#0B0B0B" transform="translate(245,57)"/>
<path d="M0 0 C1.32 0 2.64 0 4 0 C4.33 0.66 4.66 1.32 5 2 C5.66 1.34 6.32 0.68 7 0 C10.125 0.375 10.125 0.375 13 1 C12.67 1.99 12.34 2.98 12 4 C11.030625 3.979375 10.06125 3.95875 9.0625 3.9375 C6.12534105 3.64381501 6.12534105 3.64381501 5 5 C4.76572222 7.01594582 4.58663876 9.038474 4.4375 11.0625 C4.35371094 12.16722656 4.26992188 13.27195313 4.18359375 14.41015625 C4.12300781 15.26480469 4.06242187 16.11945313 4 17 C2.68 17 1.36 17 0 17 C0 11.39 0 5.78 0 0 Z " fill="#252525" transform="translate(288,133)"/>
<path d="M0 0 C0.33 0 0.66 0 1 0 C1 3.3 1 6.6 1 10 C1.66 9.67 2.32 9.34 3 9 C5.9375 8.6875 5.9375 8.6875 9 9 C11.51184797 11.38917632 11.97762806 12.75301375 12.29296875 16.234375 C12.25816406 17.39453125 12.22335938 18.5546875 12.1875 19.75 C12.16042969 20.92046875 12.13335937 22.0909375 12.10546875 23.296875 C12.07066406 24.18890625 12.03585938 25.0809375 12 26 C10.68 26 9.36 26 8 26 C7.67 21.05 7.34 16.1 7 11 C5.35 11.33 3.7 11.66 2 12 C1.34 11.67 0.68 11.34 0 11 C0 7.37 0 3.74 0 0 Z " fill="#2F2F2F" transform="translate(184,124)"/>
<path d="M0 0 C0.33 0.99 0.66 1.98 1 3 C2.65 3 4.3 3 6 3 C6 3.66 6 4.32 6 5 C4.35 5 2.7 5 1 5 C1.33 8.63 1.66 12.26 2 16 C3.65 16 5.3 16 7 16 C6.67 17.32 6.34 18.64 6 20 C1.5331992 20.36217304 1.5331992 20.36217304 -0.65625 18.875 C-2.59481574 16.17002455 -2.2934299 14.09632677 -2.1875 10.8125 C-2.16042969 9.72582031 -2.13335937 8.63914062 -2.10546875 7.51953125 C-2.07066406 6.68808594 -2.03585938 5.85664062 -2 5 C-2.66 4.67 -3.32 4.34 -4 4 C-2.68 2.68 -1.36 1.36 0 0 Z " fill="#050505" transform="translate(234,94)"/>
<path d="M0 0 C0.33 0.99 0.66 1.98 1 3 C2.65 3 4.3 3 6 3 C6 3.66 6 4.32 6 5 C4.35 5 2.7 5 1 5 C1.33 8.63 1.66 12.26 2 16 C3.65 16 5.3 16 7 16 C6.67 17.32 6.34 18.64 6 20 C1.5331992 20.36217304 1.5331992 20.36217304 -0.65625 18.875 C-2.59481574 16.17002455 -2.2934299 14.09632677 -2.1875 10.8125 C-2.16042969 9.72582031 -2.13335937 8.63914062 -2.10546875 7.51953125 C-2.07066406 6.68808594 -2.03585938 5.85664063 -2 5 C-2.66 4.67 -3.32 4.34 -4 4 C-2.68 2.68 -1.36 1.36 0 0 Z " fill="#070707" transform="translate(174,21)"/>
<path d="M0 0 C3.375 0.3125 3.375 0.3125 7 1 C9 4 9 4 9 9 C5.04 9 1.08 9 -3 9 C-2.24872886 5.24364431 -1.75994274 3.16789693 0 0 Z " fill="#1E1E1E" transform="translate(308,133)"/>
<path d="M0 0 C0 2.64 0 5.28 0 8 C-2.76250036 9.38125018 -4.94731099 9.19079306 -8 9 C-8.66 8.34 -9.32 7.68 -10 7 C-10 4.5625 -10 4.5625 -9 2 C-3.92647059 -1.30882353 -3.92647059 -1.30882353 0 0 Z " fill="#1E1E1E" transform="translate(234,68)"/>
<path d="M0 0 C0.99 0 1.98 0 3 0 C3 8.58 3 17.16 3 26 C2.01 26 1.02 26 0 26 C0 17.42 0 8.84 0 0 Z " fill="#050505" transform="translate(249,14)"/>
<path d="M0 0 C0.99 0 1.98 0 3 0 C3.33 0.66 3.66 1.32 4 2 C4.66 1.34 5.32 0.68 6 0 C8.625 -0.125 8.625 -0.125 11 0 C11 1.32 11 2.64 11 4 C9.02 4 7.04 4 5 4 C3.71553081 6.56893838 3.67022856 8.76576337 3.4375 11.625 C3.35371094 12.62789062 3.26992187 13.63078125 3.18359375 14.6640625 C3.12300781 15.43492187 3.06242188 16.20578125 3 17 C2.01 17 1.02 17 0 17 C0 11.39 0 5.78 0 0 Z " fill="#010101" transform="translate(151,133)"/>
<path d="M0 0 C-0.99 0.495 -0.99 0.495 -2 1 C-1.505 1.598125 -1.01 2.19625 -0.5 2.8125 C1 5 1 5 1 8 C-1.97 8 -4.94 8 -8 8 C-8.33 7.34 -8.66 6.68 -9 6 C-9.33 7.98 -9.66 9.96 -10 12 C-10.33 12 -10.66 12 -11 12 C-11.4247346 7.6677071 -11.47048413 5.65037512 -8.875 2.0625 C-5.56851204 -0.30954571 -3.9760803 -0.46233492 0 0 Z " fill="#282828" transform="translate(204,96)"/>
<path d="M0 0 C1.32 0 2.64 0 4 0 C4 5.61 4 11.22 4 17 C2.68 17.33 1.36 17.66 0 18 C0 12.06 0 6.12 0 0 Z " fill="#373737" transform="translate(184,23)"/>
<path d="M0 0 C2.5625 0.1875 2.5625 0.1875 4.5625 2.1875 C4.70747985 4.76814129 4.74927545 7.23693884 4.6875 9.8125 C4.67847656 10.51890625 4.66945313 11.2253125 4.66015625 11.953125 C4.63657603 13.69806098 4.60070461 15.44282295 4.5625 17.1875 C3.5725 17.1875 2.5825 17.1875 1.5625 17.1875 C1.53671875 16.28386719 1.5109375 15.38023438 1.484375 14.44921875 C1.42765625 13.26972656 1.3709375 12.09023437 1.3125 10.875 C1.26609375 9.70324219 1.2196875 8.53148438 1.171875 7.32421875 C0.86195851 4.09271318 0.86195851 4.09271318 -1.484375 2.26953125 C-2.12890625 1.91246094 -2.7734375 1.55539063 -3.4375 1.1875 C-2.4375 0.1875 -2.4375 0.1875 0 0 Z " fill="#0E0E0E" transform="translate(293.4375,59.8125)"/>
<path d="M0 0 C2.18975773 3.28463659 2.99806563 6.20696275 4 10 C1.36 10 -1.28 10 -4 10 C-4.33 11.65 -4.66 13.3 -5 15 C-5.66 15 -6.32 15 -7 15 C-6.71758359 13.53984709 -6.42373386 12.08190207 -6.125 10.625 C-5.96257812 9.81289062 -5.80015625 9.00078125 -5.6328125 8.1640625 C-5 6 -5 6 -3 4 C-1.98758315 2.67607028 -0.98560611 1.34400833 0 0 Z " fill="#494949" transform="translate(91,136)"/>
<path d="M0 0 C0.99 0 1.98 0 3 0 C3 5.61 3 11.22 3 17 C1.35 16.67 -0.3 16.34 -2 16 C-2.33 15.34 -2.66 14.68 -3 14 C-2.34 13.67 -1.68 13.34 -1 13 C-0.53045739 9.95418731 -0.53045739 9.95418731 -0.375 6.4375 C-0.30023438 5.23996094 -0.22546875 4.04242188 -0.1484375 2.80859375 C-0.09945313 1.88175781 -0.05046875 0.95492187 0 0 Z " fill="#040404" transform="translate(280,133)"/>
<path d="M0 0 C0.99 0 1.98 0 3 0 C3 5.61 3 11.22 3 17 C2.01 17 1.02 17 0 17 C0 11.39 0 5.78 0 0 Z " fill="#0A0A0A" transform="translate(201,133)"/>
<path d="M0 0 C0.99 0 1.98 0 3 0 C3 5.61 3 11.22 3 17 C2.01 17 1.02 17 0 17 C0 11.39 0 5.78 0 0 Z " fill="#010101" transform="translate(255,60)"/>
<path d="M0 0 C0.99 0 1.98 0 3 0 C3 5.61 3 11.22 3 17 C2.01 17 1.02 17 0 17 C0 11.39 0 5.78 0 0 Z " fill="#111111" transform="translate(218,60)"/>
<path d="M0 0 C0.99 0.66 1.98 1.32 3 2 C3 2.99 3 3.98 3 5 C2.34 5 1.68 5 1 5 C0.67 4.34 0.34 3.68 0 3 C-1.65 3 -3.3 3 -5 3 C-5.33 3.99 -5.66 4.98 -6 6 C-4.68 6.66 -3.36 7.32 -2 8 C-2.33 8.66 -2.66 9.32 -3 10 C-5.4375 9.3125 -5.4375 9.3125 -8 8 C-9 5.5625 -9 5.5625 -9 3 C-6.82655578 -0.70764013 -3.98186313 -0.41477741 0 0 Z " fill="#202020" transform="translate(73,133)"/>
<path d="M0 0 C0.99 0 1.98 0 3 0 C4.0044134 2.2898234 5.00367612 4.5816599 6 6.875 C6.28617188 7.52597656 6.57234375 8.17695313 6.8671875 8.84765625 C9 13.7734375 9 13.7734375 9 16 C8.01 15.67 7.02 15.34 6 15 C5.67 13.35 5.34 11.7 5 10 C2.36 10 -0.28 10 -3 10 C-3 9.67 -3 9.34 -3 9 C-0.69 9 1.62 9 4 9 C3.67 8.236875 3.34 7.47375 3 6.6875 C2 4 2 4 2 1 C1.34 0.67 0.68 0.34 0 0 Z " fill="#171717" transform="translate(48,135)"/>
<path d="M0 0 C0.66 0 1.32 0 2 0 C2.99 2.97 3.98 5.94 5 9 C2.69 9 0.38 9 -2 9 C-1.34 6.03 -0.68 3.06 0 0 Z " fill="#E5E5E5" transform="translate(134,130)"/>
<path d="M0 0 C0.66 0 1.32 0 2 0 C2.99 2.97 3.98 5.94 5 9 C2.69 9 0.38 9 -2 9 C-1.34 6.03 -0.68 3.06 0 0 Z " fill="#E7E7E7" transform="translate(134,57)"/>
<path d="M0 0 C0.66 0 1.32 0 2 0 C2 5.28 2 10.56 2 16 C1.34 16 0.68 16 0 16 C0 15.34 0 14.68 0 14 C-0.99 13.67 -1.98 13.34 -3 13 C-2.01 12.67 -1.02 12.34 0 12 C0 8.04 0 4.08 0 0 Z " fill="#050505" transform="translate(167,97)"/>
<path d="M0 0 C0.66 0 1.32 0 2 0 C2 0.66 2 1.32 2 2 C2.66 2.33 3.32 2.66 4 3 C3.67 3.33 3.34 3.66 3 4 C2.76572222 6.01594582 2.58663876 8.038474 2.4375 10.0625 C2.31181641 11.71958984 2.31181641 11.71958984 2.18359375 13.41015625 C2.12300781 14.26480469 2.06242188 15.11945312 2 16 C1.34 16 0.68 16 0 16 C0 10.72 0 5.44 0 0 Z " fill="#000000" transform="translate(214,24)"/>
<path d="M0 0 C1.65 0 3.3 0 5 0 C5.66 1.32 6.32 2.64 7 4 C4.03 4 1.06 4 -2 4 C-1.34 2.68 -0.68 1.36 0 0 Z " fill="#DFDFDF" transform="translate(307,136)"/>
<path d="M0 0 C1.65 0 3.3 0 5 0 C5.66 1.32 6.32 2.64 7 4 C4.03 4 1.06 4 -2 4 C-1.34 2.68 -0.68 1.36 0 0 Z " fill="#E0E0E0" transform="translate(226,136)"/>
<path d="M0 0 C0.66 0 1.32 0 2 0 C2.66 2.64 3.32 5.28 4 8 C2.02 8 0.04 8 -2 8 C-1.34 5.36 -0.68 2.72 0 0 Z " fill="#C8C8C8" transform="translate(48,136)"/>
<path d="M0 0 C2.125 0.375 2.125 0.375 4 1 C4.33 2.65 4.66 4.3 5 6 C3.35 6.33 1.7 6.66 0 7 C0.66 6.34 1.32 5.68 2 5 C1.01 5 0.02 5 -1 5 C-1.33 4.01 -1.66 3.02 -2 2 C-1.34 1.34 -0.68 0.68 0 0 Z " fill="#8D8C8D" transform="translate(95,128)"/>
<path d="M0 0 C0.66 0.66 1.32 1.32 2 2 C2.66 1.34 3.32 0.68 4 0 C7.125 0.375 7.125 0.375 10 1 C9.67 1.99 9.34 2.98 9 4 C6 4 3 4 0 4 C0 2.68 0 1.36 0 0 Z " fill="#191919" transform="translate(291,133)"/>
<path d="M0 0 C0 1.65 0 3.3 0 5 C-1.65 5.33 -3.3 5.66 -5 6 C-5 4.68 -5 3.36 -5 2 C-2 0 -2 0 0 0 Z " fill="#E3E3E3" transform="translate(240,32)"/>
<path d="M0 0 C1.9451 2.91765 2.45276317 4.62537285 3 8 C1.35 8 -0.3 8 -2 8 C-1.125 1.125 -1.125 1.125 0 0 Z " fill="#D2D2D2" transform="translate(91,136)"/>
<path d="M0 0 C1.65 0.33 3.3 0.66 5 1 C5.33 1.99 5.66 2.98 6 4 C3.36 4 0.72 4 -2 4 C-1.34 2.68 -0.68 1.36 0 0 Z " fill="#F5F5F5" transform="translate(199,99)"/>
<path d="M0 0 C0.763125 0.0825 1.52625 0.165 2.3125 0.25 C2.3125 1.57 2.3125 2.89 2.3125 4.25 C-0.3275 4.25 -2.9675 4.25 -5.6875 4.25 C-3.34903846 0.31153846 -3.34903846 0.31153846 0 0 Z " fill="#151515" transform="translate(159.6875,132.75)"/>
<path d="M0 0 C0 1.65 0 3.3 0 5 C-1.32 5.33 -2.64 5.66 -4 6 C-4.33 4.68 -4.66 3.36 -5 2 C-2 0 -2 0 0 0 Z " fill="#F8F8F8" transform="translate(233,69)"/>
<path d="M0 0 C0.66 0.99 1.32 1.98 2 3 C2.99 3.66 3.98 4.32 5 5 C4.67 5.66 4.34 6.32 4 7 C2.35 6.67 0.7 6.34 -1 6 C-1.33 4.35 -1.66 2.7 -2 1 C-1.34 0.67 -0.68 0.34 0 0 Z " fill="#232323" transform="translate(233,34)"/>
<path d="M0 0 C0.268125 0.61875 0.53625 1.2375 0.8125 1.875 C1.95556848 4.2995233 1.95556848 4.2995233 5 6 C2.625 6.625 2.625 6.625 0 7 C-0.66 6.34 -1.32 5.68 -2 5 C-1.46428571 1.46428571 -1.46428571 1.46428571 0 0 Z " fill="#161616" transform="translate(156,34)"/>
<path d="M0 0 C0 1.98 0 3.96 0 6 C-1.65 6 -3.3 6 -5 6 C-4.6875 4.125 -4.6875 4.125 -4 2 C-1 0 -1 0 0 0 Z " fill="#F2F2F2" transform="translate(162,32)"/>
<path d="M0 0 C0 1.98 0 3.96 0 6 C-0.33 6 -0.66 6 -1 6 C-1 4.35 -1 2.7 -1 1 C-3.64 1.99 -6.28 2.98 -9 4 C-8 1 -8 1 -5.625 -0.25 C-3 -1 -3 -1 0 0 Z " fill="#252525" transform="translate(234,68)"/>
<path d="M0 0 C1.23556641 0.01740234 1.23556641 0.01740234 2.49609375 0.03515625 C3.32238281 0.04417969 4.14867187 0.05320313 5 0.0625 C5.63808594 0.07410156 6.27617188 0.08570313 6.93359375 0.09765625 C6.93359375 0.42765625 6.93359375 0.75765625 6.93359375 1.09765625 C4.29359375 1.09765625 1.65359375 1.09765625 -1.06640625 1.09765625 C-1.19015625 1.73703125 -1.31390625 2.37640625 -1.44140625 3.03515625 C-1.64765625 3.71578125 -1.85390625 4.39640625 -2.06640625 5.09765625 C-3.05640625 5.59265625 -3.05640625 5.59265625 -4.06640625 6.09765625 C-2.99738005 0.14165312 -2.99738005 0.14165312 0 0 Z " fill="#4B4A4A" transform="translate(46.06640625,144.90234375)"/>
<path d="M0 0 C0.66 0.33 1.32 0.66 2 1 C2 2.65 2 4.3 2 6 C0.68 5.34 -0.64 4.68 -2 4 C-2 3.01 -2 2.02 -2 1 C-1.34 0.67 -0.68 0.34 0 0 Z " fill="#161616" transform="translate(32,145)"/>
<path d="M0 0 C0.33 0.99 0.66 1.98 1 3 C3.97 3.495 3.97 3.495 7 4 C6.67 4.99 6.34 5.98 6 7 C3.5625 6.3125 3.5625 6.3125 1 5 C0.1875 2.375 0.1875 2.375 0 0 Z " fill="#3B3B3B" transform="translate(64,136)"/>
<path d="M0 0 C2.31 0.66 4.62 1.32 7 2 C6.67 2.66 6.34 3.32 6 4 C4.35 4 2.7 4 1 4 C0.67 2.68 0.34 1.36 0 0 Z " fill="#141414" transform="translate(243,109)"/>
</svg>
